PathFileType	4	(X/Y/Z) flx_0kg_2.trc																										
DataRate	CameraRate	NumFrames	NumMarkers	Units	OrigDataRate	OrigDataStartFrame	OrigNumFrames																					
100	100	45	9	mm	100	531	848																					
Frame#	Time	gu			centelbow			EpL			centpxt8			centijc7			ij			ts			aa			ai		
		X1	Y1	Z1	X2	Y2	Z2	X3	Y3	Z3	X4	Y4	Z4	X5	Y5	Z5	X6	Y6	Z6	X7	Y7	Z7	X8	Y8	Z8	X9	Y9	Z9  
530	5.3	-94.518	48.409	127.542	107.112	42.2	269.99	100.92	73.676	273.203	-46.816	-153.158	-8.669	-46.816	31.938	-8.669	0	0	0	-155.95	-1.977	41.546	-125.632	68.088	133.179	-141.033	-90.47	111.059
531	5.31	-93.838	48.352	127.656	107.63	39.791	270.21	101.7	71.302	273.566	-46.816	-153.158	-8.669	-46.816	31.938	-8.669	0	0	0	-155.69	-2.022	41.594	-125.474	67.61	133.59	-140.936	-90.837	110.73
532	5.32	-93.165	48.828	127.667	108.231	38.182	270.182	102.525	69.72	273.682	-46.816	-153.158	-8.669	-46.816	31.938	-8.669	0	0	0	-155.332	-1.511	41.127	-125.166	67.761	133.41	-140.514	-90.601	109.895
533	5.33	-93.04	49.194	127.797	108.281	36.459	270.248	102.791	68.017	273.905	-46.816	-153.158	-8.669	-46.816	31.938	-8.669	0	0	0	-155.006	-0.857	40.666	-124.873	68.1	133.196	-140.05	-90.19	109.088
534	5.34	-93.282	49.073	128.062	107.924	34.102	270.458	102.659	65.677	274.292	-46.816	-153.158	-8.669	-46.816	31.938	-8.669	0	0	0	-154.754	-0.53	40.579	-124.68	68.067	133.395	-139.787	-90.131	108.647
535	5.35	-93.404	48.713	128.273	107.661	31.411	270.603	102.621	62.998	274.634	-46.816	-153.158	-8.669	-46.816	31.938	-8.669	0	0	0	-154.607	-0.438	40.644	-124.611	67.703	133.82	-139.802	-90.366	108.315
536	5.36	-93.138	48.167	128.516	107.738	28.433	270.796	102.927	60.029	275.04	-46.816	-153.158	-8.669	-46.816	31.938	-8.669	0	0	0	-154.556	-0.298	40.541	-124.619	67.313	134.122	-139.988	-90.6	107.765
537	5.37	-92.515	47.381	128.976	108.08	25.125	271.28	103.505	56.725	275.743	-46.816	-153.158	-8.669	-46.816	31.938	-8.669	0	0	0	-154.571	-0.135	40.29	-124.669	66.92	134.281	-140.22	-90.824	107.039
538	5.38	-91.869	46.666	129.428	108.396	21.913	271.785	104.049	53.514	276.467	-46.816	-153.158	-8.669	-46.816	31.938	-8.669	0	0	0	-154.648	-0.06	40.107	-124.803	66.464	134.492	-140.474	-91.117	106.388
539	5.39	-91.655	46.19	129.647	108.296	18.972	271.995	104.171	50.568	276.904	-46.816	-153.158	-8.669	-46.816	31.938	-8.669	0	0	0	-154.665	0.059	40.09	-124.925	66.108	134.841	-140.624	-91.327	105.946
540	5.4	-91.978	45.804	129.869	107.652	16.035	272.156	103.753	47.622	277.305	-46.816	-153.158	-8.669	-46.816	31.938	-8.669	0	0	0	-154.403	0.478	40.124	-124.795	66.105	135.21	-140.449	-91.2	105.591
541	5.41	-92.458	45.481	130.342	106.775	13.007	272.594	103.118	44.581	277.993	-46.816	-153.158	-8.669	-46.816	31.938	-8.669	0	0	0	-153.901	1.163	40.079	-124.408	66.366	135.493	-140.036	-90.805	105.157
542	5.42	-92.61	45.178	130.951	106.147	9.833	273.186	102.746	41.39	278.846	-46.816	-153.158	-8.669	-46.816	31.938	-8.669	0	0	0	-153.511	1.675	40.059	-124.094	66.382	135.832	-139.845	-90.623	104.711
543	5.43	-92.284	44.745	131.465	105.974	6.423	273.625	102.837	37.956	279.564	-46.816	-153.158	-8.669	-46.816	31.938	-8.669	0	0	0	-153.507	1.643	40.297	-124.142	65.754	136.485	-140.217	-91.04	104.476
544	5.44	-91.784	44.167	131.908	106	2.895	273.903	103.117	34.396	280.13	-46.816	-153.158	-8.669	-46.816	31.938	-8.669	0	0	0	-153.803	1.191	40.791	-124.481	64.617	137.446	-141.004	-91.924	104.441
545	5.45	-91.497	43.431	132.468	105.844	-0.695	274.221	103.204	30.77	280.734	-46.816	-153.158	-8.669	-46.816	31.938	-8.669	0	0	0	-154.099	0.743	41.242	-124.788	63.424	138.385	-141.744	-92.837	104.295
546	5.46	-91.461	42.461	133.124	105.486	-4.459	274.527	103.09	26.967	281.317	-46.816	-153.158	-8.669	-46.816	31.938	-8.669	0	0	0	-154.205	0.546	41.433	-124.832	62.466	139.044	-142.118	-93.509	103.829
547	5.47	-91.397	41.376	133.657	105.251	-8.302	274.534	103.111	23.084	281.589	-46.816	-153.158	-8.669	-46.816	31.938	-8.669	0	0	0	-154.088	0.617	41.398	-124.581	61.797	139.435	-142.085	-93.9	103.11
548	5.48	-91.03	40.494	133.884	105.445	-11.846	274.036	103.565	19.499	281.341	-46.816	-153.158	-8.669	-46.816	31.938	-8.669	0	0	0	-153.743	0.979	41.269	-124.068	61.449	139.695	-141.71	-93.977	102.295
549	5.49	-90.356	40.053	133.807	106.037	-14.78	273.118	104.407	16.524	280.658	-46.816	-153.158	-8.669	-46.816	31.938	-8.669	0	0	0	-153.271	1.603	41.163	-123.442	61.371	139.97	-141.213	-93.781	101.513
550	5.5	-89.695	39.927	133.757	106.555	-17.305	272.302	105.17	13.957	280.061	-46.816	-153.158	-8.669	-46.816	31.938	-8.669	0	0	0	-152.914	2.173	41.176	-122.975	61.219	140.384	-140.963	-93.642	100.862
551	5.51	-89.353	39.683	134.177	106.542	-20.083	272.153	105.412	11.133	280.132	-46.816	-153.158	-8.669	-46.816	31.938	-8.669	0	0	0	-152.723	2.292	41.373	-122.721	60.583	141.006	-141.056	-93.958	100.41
552	5.52	-89.224	39.098	135.122	106.125	-23.463	272.632	105.269	7.699	280.855	-46.816	-153.158	-8.669	-46.816	31.938	-8.669	0	0	0	-152.57	2.049	41.647	-122.531	59.586	141.706	-141.251	-94.627	100.053
553	5.53	-88.98	38.342	136.27	105.78	-27.169	273.241	105.209	3.929	281.728	-46.816	-153.158	-8.669	-46.816	31.938	-8.669	0	0	0	-152.55	1.94	41.749	-122.476	58.778	142.197	-141.466	-95.129	99.546
554	5.54	-88.593	37.654	137.169	105.671	-30.731	273.44	105.381	0.299	282.188	-46.816	-153.158	-8.669	-46.816	31.938	-8.669	0	0	0	-152.765	2.184	41.575	-122.645	58.395	142.362	-141.735	-95.239	98.782
555	5.55	-88.359	37.247	137.456	105.547	-33.746	272.899	105.525	-2.782	281.879	-46.816	-153.158	-8.669	-46.816	31.938	-8.669	0	0	0	-152.891	2.596	41.249	-122.705	58.225	142.338	-141.794	-95.157	97.877
556	5.56	-88.434	37.152	137.253	105.132	-36.199	271.924	105.366	-5.292	281.098	-46.816	-153.158	-8.669	-46.816	31.938	-8.669	0	0	0	-152.567	2.964	41	-122.314	58.028	142.378	-141.408	-95.104	97.068
557	5.57	-88.603	37.049	137.171	104.429	-38.657	271.303	104.929	-7.804	280.645	-46.816	-153.158	-8.669	-46.816	31.938	-8.669	0	0	0	-151.962	3.157	41.037	-121.672	57.655	142.71	-140.865	-95.219	96.577
558	5.58	-88.649	36.624	137.653	103.56	-41.686	271.472	104.358	-10.89	280.979	-46.816	-153.158	-8.669	-46.816	31.938	-8.669	0	0	0	-151.5	3.161	41.353	-121.213	57.056	143.347	-140.652	-95.532	96.378
559	5.59	-88.647	35.842	138.579	102.509	-45.406	272.155	103.636	-14.679	281.849	-46.816	-153.158	-8.669	-46.816	31.938	-8.669	0	0	0	-151.397	3.18	41.683	-121.141	56.395	144.042	-140.946	-95.861	96.156
560	5.6	-88.648	34.79	139.581	101.372	-49.622	272.816	102.843	-18.98	282.731	-46.816	-153.158	-8.669	-46.816	31.938	-8.669	0	0	0	-151.62	3.376	41.821	-121.423	55.812	144.6	-141.643	-96.056	95.667
561	5.61	-88.529	33.724	140.431	100.451	-53.782	273.147	102.251	-23.234	283.295	-46.816	-153.158	-8.669	-46.816	31.938	-8.669	0	0	0	-151.97	3.59	41.892	-121.869	55.147	145.142	-142.508	-96.277	95.021
562	5.62	-88.402	33.052	140.966	99.777	-57.144	273.017	101.865	-26.686	283.378	-46.816	-153.158	-8.669	-46.816	31.938	-8.669	0	0	0	-152.141	3.683	42.016	-122.143	54.307	145.757	-143.179	-96.638	94.371
563	5.63	-88.574	32.804	141.149	99.034	-59.635	272.461	101.367	-29.256	283.003	-46.816	-153.158	-8.669	-46.816	31.938	-8.669	0	0	0	-151.944	3.916	41.913	-121.983	53.648	146.095	-143.354	-96.833	93.503
564	5.64	-89.019	32.493	141.295	98.084	-62.033	271.84	100.652	-31.731	282.546	-46.816	-153.158	-8.669	-46.816	31.938	-8.669	0	0	0	-151.545	4.488	41.414	-121.532	53.432	145.953	-143.157	-96.636	92.297
565	5.65	-89.419	31.825	141.682	97.143	-64.854	271.42	99.959	-34.633	282.291	-46.816	-153.158	-8.669	-46.816	31.938	-8.669	0	0	0	-151.265	5.054	40.969	-121.177	53.283	145.819	-143.007	-96.407	91.198
566	5.66	-89.579	31.038	142.147	96.453	-67.83	270.994	99.523	-37.695	282.032	-46.816	-153.158	-8.669	-46.816	31.938	-8.669	0	0	0	-151.13	5.247	40.938	-121.016	52.764	146.105	-143.05	-96.544	90.526
567	5.67	-89.44	30.435	142.472	96.1	-70.582	270.357	99.418	-40.536	281.566	-46.816	-153.158	-8.669	-46.816	31.938	-8.669	0	0	0	-150.971	5.236	41.005	-120.886	52.008	146.514	-143.135	-96.891	89.935
568	5.68	-89.07	30.053	142.811	95.937	-73.102	269.759	99.49	-43.152	281.15	-46.816	-153.158	-8.669	-46.816	31.938	-8.669	0	0	0	-150.826	5.39	40.788	-120.823	51.383	146.661	-143.28	-97.083	89.036
569	5.69	-88.83	29.736	143.37	95.522	-75.62	269.459	99.304	-45.773	281.048	-46.816	-153.158	-8.669	-46.816	31.938	-8.669	0	0	0	-150.876	5.724	40.396	-121.032	50.928	146.654	-143.656	-97.093	87.958
570	5.7	-89.047	29.263	144.013	94.537	-78.401	269.27	98.554	-48.667	281.068	-46.816	-153.158	-8.669	-46.816	31.938	-8.669	0	0	0	-151.079	5.981	40.135	-121.477	50.421	146.782	-144.211	-97.163	87.037
571	5.71	-89.578	28.485	144.516	93.161	-81.593	268.908	97.426	-51.98	280.921	-46.816	-153.158	-8.669	-46.816	31.938	-8.669	0	0	0	-151.171	6.073	40.076	-121.861	49.808	147.095	-144.656	-97.367	86.373
572	5.72	-90.061	27.561	144.843	91.773	-84.979	268.356	96.29	-55.494	280.589	-46.816	-153.158	-8.669	-46.816	31.938	-8.669	0	0	0	-150.994	6.184	40.077	-121.981	49.288	147.432	-144.8	-97.517	85.831
573	5.73	-90.315	26.865	145.038	90.582	-88.073	267.716	95.34	-58.716	280.165	-46.816	-153.158	-8.669	-46.816	31.938	-8.669	0	0	0	-150.654	6.443	40.02	-121.907	48.985	147.67	-144.748	-97.487	85.29
574	5.74	-90.399	26.521	145.143	89.557	-90.654	267.086	94.546	-61.419	279.729	-46.816	-153.158	-8.669	-46.816	31.938	-8.669	0	0	0	-150.379	6.716	39.936	-121.86	48.732	147.854	-144.777	-97.423	84.761
